<svg width="65" height="65" viewBox="0 0 65 65" fill="none" xmlns="http://www.w3.org/2000/svg">
<path fill-rule="evenodd" clip-rule="evenodd" d="M14.1275 11.4188C13.5417 12.0046 13.5417 12.9474 13.5417 14.833V52.8747C13.5417 54.7603 13.5417 55.7031 14.1275 56.2889C14.7132 56.8747 15.6561 56.8747 17.5417 56.8747H47.4583C49.344 56.8747 50.2868 56.8747 50.8726 56.2889C51.4583 55.7031 51.4583 54.7603 51.4583 52.8747V14.833C51.4583 12.9474 51.4583 12.0046 50.8726 11.4188C50.2868 10.833 49.344 10.833 47.4583 10.833H17.5417C15.6561 10.833 14.7132 10.833 14.1275 11.4188ZM24.375 23.3747C23.8227 23.3747 23.375 23.8224 23.375 24.3747C23.375 24.927 23.8227 25.3747 24.375 25.3747H40.625C41.1773 25.3747 41.625 24.927 41.625 24.3747C41.625 23.8224 41.1773 23.3747 40.625 23.3747H24.375ZM24.375 34.208C23.8227 34.208 23.375 34.6557 23.375 35.208C23.375 35.7603 23.8227 36.208 24.375 36.208H40.625C41.1773 36.208 41.625 35.7603 41.625 35.208C41.625 34.6557 41.1773 34.208 40.625 34.208H24.375ZM24.375 45.0413C23.8227 45.0413 23.375 45.4891 23.375 46.0413C23.375 46.5936 23.8227 47.0413 24.375 47.0413H35.2083C35.7606 47.0413 36.2083 46.5936 36.2083 46.0413C36.2083 45.4891 35.7606 45.0413 35.2083 45.0413H24.375Z" fill="#2F2A2A"/>
</svg>
