<?xml version="1.0" encoding="utf-8"?>
<svg xmlns="http://www.w3.org/2000/svg" xmlns:xlink="http://www.w3.org/1999/xlink" version= "1.1" width="950px" height="679px" viewBox="52 845 950 679">
<g id="layer1">
<g style="fill:rgb(0,174,199); fill-opacity:1.0; stroke-linejoin: miter">
<path d="M43.250584,838.43243L43.1547,838.4516L43.098495,1530.5143L1001.3708,1530.5675L1001.38086,838.43445L43.250584,838.43243 Z"/>
</g>
<g style="fill:rgb(0,0,0); fill-opacity:0.25490198; stroke-linejoin: miter">
<path d="M827.76526,1451.1403L825.0137,1451.767Q816.3196,1452.6083,792.7416,1453.3002Q780.9522,1453.6458,765.4419,1453.9546Q760.0124,1454.132,710.53864,1454.7949Q668.063,1455.2996,618.8833,1455.5367Q594.29333,1455.6561,568.0273,1455.7081Q555.94196,1455.776,485.45825,1455.7148Q418.92984,1455.4979,408.55722,1455.3864Q384.75674,1455.2344,363.40048,1455.0255Q320.68777,1454.6072,287.7521,1453.961Q214.21815,1452.3973,226.67856,1450.7118Q232.15527,1449.8726,253.79318,1449.1633Q264.61218,1448.8087,279.4715,1448.487Q284.61523,1448.3019,332.66107,1447.6013Q412.5091,1446.5668,526.35724,1446.5231Q583.2816,1446.5449,631.70557,1446.8147Q655.9177,1446.9497,678.0048,1447.1465Q731.3633,1447.692,739.485,1447.8759Q777.2841,1448.4548,798.92224,1449.1641Q809.74133,1449.5184,816.51984,1449.9056Q829.9314,1450.9023,827.76526,1451.1403"/>
</g>
<g style="fill:rgb(79,121,142); fill-opacity:1.0; stroke-linejoin: miter">
<path d="M311.66806,1132.9156C311.657,1132.9156,311.64597,1132.9161,311.63498,1132.9174L311.6343,1132.9174C304.76727,1132.934,299.5115,1138.2347,299.5115,1145.1058L299.5117,1390.74C299.5117,1397.6221,304.7862,1402.8954,311.66705,1402.911L311.66824,1402.9117L731.2657,1402.8961L731.26544,1402.8964C738.14716,1402.8961,743.4223,1397.6226,743.4223,1390.7402L743.4223,1145.1047C743.4223,1138.2334,738.16534,1132.9315,731.29565,1132.931L731.2765,1132.9315C731.27374,1132.931,731.2697,1132.931,731.2637,1132.931L311.66806,1132.9156 Z"/>
</g>
<g style="fill:rgb(34,43,50); fill-opacity:1.0; stroke-linejoin: miter">
<path d="M311.66806,1117.7843C296.67245,1117.7843,284.379,1130.109,284.3791,1145.1047L284.3791,1390.74C284.3791,1405.7354,296.67273,1418.0289,311.66833,1418.0289L731.26556,1418.0447C746.2612,1418.0292,758.55475,1405.7356,758.55475,1390.7402L758.5546,1145.1058C758.55475,1130.1102,746.2615,1117.7855,731.26556,1117.7855L311.66806,1117.8004 Z M311.66806,1133.4122L731.26556,1133.4276C737.8736,1133.4122,742.9259,1138.495,742.9259,1145.1047L742.9259,1390.7402C742.9259,1397.3478,737.87335,1402.4,731.26544,1402.4L311.66824,1402.4149C305.06042,1402.3995,300.00797,1397.3473,300.00797,1390.74L300.00787,1145.1058C300.00778,1138.4958,305.0602,1133.4135,311.66806,1133.4135 Z"/>
</g>
<g style="fill:rgb(0,0,0); fill-opacity:1.0; stroke-linejoin: miter">
<path d="M482.43524,1428.7925L560.4986,1428.8079C561.7028,1428.7925,562.6727,1429.7616,562.6727,1430.9677C562.6727,1432.1718,561.7028,1433.1418,560.4986,1433.1418L482.43524,1433.1571C481.2307,1433.1418,480.26114,1432.1727,480.26114,1430.9674C480.26114,1429.7635,481.2307,1428.7925,482.43524,1428.7925 Z"/>
</g>
<g style="fill:rgb(215,237,249); fill-opacity:1.0; stroke-linejoin: miter">
<path d="M575.0961,1484.7908L575.0961,1484.7908L575.0961,1484.7915L575.0961,1484.7908"/>
</g>
<g style="fill:rgb(255,183,159); fill-opacity:1.0; stroke-linejoin: miter">
<path d="M757.51434,1366.3107L757.51434,1366.3116L757.51434,1366.3121L757.51434,1366.3107"/>
</g>
<g style="fill:rgb(34,43,50); fill-opacity:1.0; stroke-linejoin: miter">
<path d="M259.38303,1422.5405C259.38303,1439.0369,270.77463,1452.323,284.9201,1452.323L758.01434,1452.3392C772.15924,1452.3232,783.5511,1439.039,783.5512,1422.5405L259.38284,1422.5555 Z"/>
</g>
<g style="fill:rgb(113,207,235); fill-opacity:1.0; stroke-linejoin: miter">
<path d="M689.0803,1233.5366C694.00055,1232.8092,697.4107,1228.214,696.6829,1223.2936C695.95544,1218.3737,691.3611,1214.963,686.4411,1215.6903C681.5211,1216.418,678.11053,1221.013,678.83826,1225.9329C679.5663,1230.8533,684.1608,1234.2644,689.0803,1233.5366 Z"/>
</g>
<g style="fill:rgb(113,207,235); fill-opacity:1.0; stroke-linejoin: miter">
<path d="M694.8485,1231.8423C693.2993,1233.4813,691.21375,1234.6335,688.81506,1234.9882C686.476,1235.3344,684.2008,1234.869,682.2746,1233.8062C676.7592,1235.5552,673.1679,1241.0923,674.0416,1247.0005C675.0118,1253.5597,679.6979,1248.5095,686.25604,1247.5392L695.83606,1246.1227C702.39484,1245.1526,708.3425,1248.6306,707.37225,1242.071C706.4573,1235.8842,700.973,1231.504,694.8485,1231.8423 Z"/>
</g>
<g style="fill:rgb(255,255,255); fill-opacity:1.0; stroke-linejoin: miter">
<path d="M590.43646,1224.1135L668.1826,1212.6151L745.92957,1201.1173Q756.0097,1269.2767,766.0899,1337.4359L610.59705,1360.4316Q600.51685,1292.2727,590.43646,1224.1135"/>
</g>
<g style="fill:rgb(201,214,222); fill-opacity:1.0; stroke-linejoin: miter">
<path d="M625.14166,1277.1956L676.60785,1269.5841L728.07465,1261.9731Q729.5565,1271.9926,731.0383,1282.0128Q679.5718,1289.6239,628.10547,1297.2354Q626.62354,1287.2155,625.14166,1277.1956"/>
</g>
<g style="fill:rgb(34,43,50); fill-opacity:1.0; stroke-linejoin: miter">
<path d="M638.0557,1279.7858L638.7062,1284.184L634.50494,1283.4835L633.9843,1286.6666L638.1856,1287.3672L636.1246,1291.307L638.9245,1292.8098L641.0405,1288.7953L644.1537,1291.9702L646.473,1289.7766L643.5179,1286.7767L647.3917,1284.8162L645.9815,1281.9844L641.9137,1283.9739L641.225,1279.3173 Z"/>
</g>
<g style="fill:rgb(34,43,50); fill-opacity:1.0; stroke-linejoin: miter">
<path d="M654.3477,1277.3763L654.9983,1281.7748L650.7968,1281.0742L650.2763,1284.2573L654.47766,1284.9576L652.4166,1288.8978L655.2165,1290.4004L657.3326,1286.3861L660.44586,1289.5608L662.7651,1287.3672L659.8099,1284.3676L663.6838,1282.407L662.2736,1279.5747L658.2057,1281.5643L657.517,1276.9078 Z"/>
</g>
<g style="fill:rgb(34,43,50); fill-opacity:1.0; stroke-linejoin: miter">
<path d="M670.6397,1274.9668L671.2903,1279.365L667.0889,1278.6646L666.56836,1281.8479L670.7696,1282.5485L668.7086,1286.4885L671.50836,1287.9911L673.6246,1283.977L676.7378,1287.1512L679.0572,1284.9576L676.102,1281.9583L679.9758,1279.9974L678.5657,1277.1654L674.49774,1279.1552L673.8089,1274.498 Z"/>
</g>
<g style="fill:rgb(34,43,50); fill-opacity:1.0; stroke-linejoin: miter">
<path d="M686.93176,1272.5574L687.5824,1276.9556L683.381,1276.2555L682.8604,1279.4384L687.06177,1280.1389L685.00073,1284.0789L687.8005,1285.5817L689.9167,1281.5674L693.02997,1284.7421L695.3492,1282.5485L692.3941,1279.5491L696.268,1277.588L694.85754,1274.756L690.7898,1276.7456L690.1009,1272.0886 Z"/>
</g>
<g style="fill:rgb(201,214,222); fill-opacity:1.0; stroke-linejoin: miter">
<path d="M629.0414,1303.5634L731.9743,1288.3412L734.93787,1308.3806L632.00507,1323.6031L629.0414,1303.5634"/>
</g>
<g style="fill:rgb(34,43,50); fill-opacity:1.0; stroke-linejoin: miter">
<path d="M641.91205,1304.2211L642.56244,1308.619L638.36115,1307.9186L637.8405,1311.1019L642.0419,1311.8025L639.98083,1315.7421L642.78064,1317.2449L644.8968,1313.2306L648.00995,1316.4055L650.32916,1314.2119L647.3741,1311.212L651.2479,1309.2512L649.8377,1306.4194L645.76996,1308.4094L645.0812,1303.7521 Z"/>
</g>
<g style="fill:rgb(34,43,50); fill-opacity:1.0; stroke-linejoin: miter">
<path d="M658.20404,1301.8116L658.8544,1306.2098L654.6531,1305.5093L654.1325,1308.6926L658.33386,1309.3932L656.27277,1313.3326L659.07263,1314.8351L661.1888,1310.8214L664.30206,1313.9961L666.62134,1311.8027L663.66614,1308.8024L667.5399,1306.8417L666.1299,1304.0103L662.06195,1305.9996L661.37317,1301.3429 Z"/>
</g>
<g style="fill:rgb(34,43,50); fill-opacity:1.0; stroke-linejoin: miter">
<path d="M674.49603,1299.4021L675.1465,1303.8005L670.9451,1303.0999L670.42456,1306.283L674.6259,1306.9835L672.5648,1310.9236L675.3646,1312.4261L677.48083,1308.4121L680.59406,1311.5865L682.9133,1309.3932L679.9582,1306.3933L683.832,1304.4327L682.4219,1301.601L678.35406,1303.5905L677.66534,1298.9338 Z"/>
</g>
<g style="fill:rgb(0,188,233); fill-opacity:1.0; stroke-linejoin: miter">
<path d="M653.7787,1328.8304L684.6939,1324.2587L715.6092,1319.6871Q716.8735,1328.2339,718.1376,1336.7814Q687.22217,1341.3536,656.307,1345.9257Q655.0429,1337.3782,653.7787,1328.8304"/>
</g>
<g style="fill:rgb(255,255,255); fill-opacity:1.0; stroke-linejoin: miter">
<path d="M690.2716,1326.0055Q690.13477,1326.0259,689.9501,1326.0657Q689.76526,1326.1057,689.60736,1326.1544Q689.60266,1326.2949,689.616,1326.471Q689.6418,1326.645,689.6619,1326.7821Q689.6823,1326.9188,689.7204,1327.091Q689.7463,1327.2655,689.7932,1327.411Q689.9586,1327.412,690.1471,1327.3969Q690.3354,1327.3817,690.48474,1327.36Q690.6215,1327.3396,690.8062,1327.2996Q690.9785,1327.2614,691.1242,1327.2144Q691.1271,1327.0612,691.1137,1326.8853Q691.0879,1326.7112,691.06757,1326.5745Q691.0473,1326.4374,691.0092,1326.2651Q690.98334,1326.0908,690.93823,1325.9578Q690.7853,1325.9547,690.5969,1325.9698Q690.40845,1325.9851,690.2716,1326.0055 Z M685.44696,1330.2527Q686.1187,1330.1532,686.4991,1330.4915Q686.8777,1330.8168,686.96594,1331.4138Q687.05255,1331.9984,686.7842,1332.4194Q686.51605,1332.8405,685.8443,1332.9392Q685.1726,1333.0387,684.79407,1332.7134Q684.4278,1332.3864,684.34143,1331.8015Q684.2532,1331.2047,684.5195,1330.7715Q684.77527,1330.3522,685.44696,1330.2527 Z M678.5601,1331.3855Q679.4183,1331.2589,679.9207,1331.82Q680.4214,1332.3685,680.5851,1333.4756Q680.7489,1334.583,680.4304,1335.2654Q680.11194,1335.9482,679.25366,1336.0751Q678.3954,1336.2019,677.89294,1335.6409Q677.4029,1335.0779,677.2391,1333.9702Q677.0754,1332.8636,677.3938,1332.1808Q677.70184,1331.5128,678.5601,1331.3855 Z M689.46625,1328.8956Q689.45605,1328.9991,689.46387,1329.1376Q689.4698,1329.2637,689.4883,1329.3883Q689.5066,1329.5123,689.5393,1329.648Q689.57007,1329.7703,689.6098,1329.866L690.4182,1329.7466L691.2186,1335.1575Q691.3591,1335.1622,691.53516,1335.1488Q691.69867,1335.1373,691.823,1335.1189Q691.9598,1335.0985,692.13214,1335.0603Q692.2921,1335.0239,692.42505,1334.9791L691.4813,1328.5978 Z M696.6586,1327.6796Q696.2731,1327.7368,695.96625,1327.8965Q695.6576,1328.0437,695.4345,1328.2545Q695.20966,1328.453,695.0418,1328.6942Q694.8866,1328.933,694.7934,1329.163Q694.7622,1328.951,694.67694,1328.6338Q694.59375,1328.3281,694.52893,1328.1471Q694.38837,1328.1423,694.2621,1328.1483Q694.14825,1328.1526,694.0114,1328.1727Q693.87463,1328.1931,693.73975,1328.2257Q693.6172,1328.2566,693.484,1328.3015L694.4278,1334.6827Q694.5682,1334.6873,694.7442,1334.6741Q694.92017,1334.6609,695.05707,1334.6405Q695.1938,1334.6204,695.36615,1334.582Q695.52606,1334.5458,695.65924,1334.5007L695.1807,1331.2666Q695.0943,1330.6816,695.1811,1330.2368Q695.25726,1329.8058,695.45483,1329.5096Q695.65265,1329.214,695.94525,1329.0433Q696.23785,1328.8733,696.586,1328.8218Q697.1831,1328.7335,697.5193,1329.1157Q697.85364,1329.4855,697.9842,1330.3687L698.5325,1334.0754Q698.673,1334.0802,698.84894,1334.0668Q699.01245,1334.0553,699.1493,1334.0352Q699.286,1334.0148,699.4584,1333.9764Q699.63074,1333.9385,699.7638,1333.8932L699.1661,1329.8506Q698.98395,1328.6194,698.3677,1328.0626Q697.75323,1327.5177,696.6586,1327.6796 Z M672.31165,1328.5853Q672.17487,1328.6057,672.00256,1328.6437Q671.8426,1328.6803,671.70953,1328.7253L672.81335,1336.1885Q672.8871,1336.6862,673.0734,1337.002Q673.2599,1337.3175,673.5257,1337.4817Q673.79156,1337.6455,674.11536,1337.6869Q674.4392,1337.7279,674.7999,1337.6744Q675.0114,1337.6431,675.2565,1337.5814Q675.5035,1337.5321,675.66833,1337.4441Q675.5929,1336.9343,675.4166,1336.5155Q675.32074,1336.555,675.1734,1336.5896Q675.0384,1336.6222,674.92645,1336.6389Q674.7647,1336.6627,674.6099,1336.6476Q674.4695,1336.6428,674.34094,1336.5476Q674.22675,1336.4625,674.135,1336.2731Q674.0435,1336.0831,673.99194,1335.7349L672.9285,1328.5453Q672.78796,1328.54,672.61194,1328.5537Q672.4484,1328.5652,672.31165,1328.5853 Z M678.4111,1330.378Q677.66473,1330.4884,677.1436,1330.8324Q676.6225,1331.1765,676.31555,1331.6797Q676.0087,1332.1825,675.9122,1332.8193Q675.82825,1333.4547,675.93317,1334.164Q676.03796,1334.8729,676.31464,1335.455Q676.579,1336.0383,677.01825,1336.431Q677.45776,1336.8236,678.0563,1337.0022Q678.6527,1337.1683,679.399,1337.0579Q680.14526,1336.9475,680.6664,1336.6035Q681.1894,1336.2719,681.49634,1335.7688Q681.8032,1335.2656,681.89966,1334.6285Q681.9836,1333.9934,681.87866,1333.2842Q681.7739,1332.5754,681.49713,1331.9935Q681.2329,1331.4098,680.7935,1331.0172Q680.3541,1330.6245,679.7558,1330.4462Q679.1573,1330.2676,678.4111,1330.378 Z M685.68945,1336.1398Q685.7105,1336.1366,685.732,1336.1338L687.15375,1335.9493Q687.7899,1335.8677,688.0558,1336.0321Q688.32153,1336.1957,688.3767,1336.5692Q688.4503,1337.0667,687.9401,1337.4849Q687.42834,1337.8912,686.43317,1338.0385Q686.0974,1338.088,685.8039,1338.0807Q685.5247,1338.0837,685.29675,1338.0029Q685.083,1337.933,684.9454,1337.7754Q684.80756,1337.6179,684.76715,1337.3441Q684.70264,1336.9089,684.9428,1336.5555Q685.16174,1336.2179,685.68945,1336.1398 Z M685.3145,1329.3569Q684.69257,1329.4492,684.2332,1329.695Q683.7738,1329.9407,683.4841,1330.3015Q683.20483,1330.6481,683.0914,1331.0841Q682.9779,1331.5205,683.04785,1331.993Q683.13245,1332.5652,683.4493,1332.9888Q683.76434,1333.3998,684.21704,1333.6251Q683.90735,1333.9377,683.7456,1334.305Q683.5963,1334.6703,683.6644,1335.1306Q683.7179,1335.4912,683.92865,1335.7142Q684.12537,1335.9264,684.3981,1336.0515Q683.99756,1336.3524,683.7847,1336.8032Q683.5699,1337.2417,683.6453,1337.7517Q683.7722,1338.61,684.50287,1338.9086Q685.23334,1339.2073,686.51465,1339.0181Q687.24835,1338.9095,687.85895,1338.6539Q688.4587,1338.4127,688.87476,1338.0461Q689.2927,1337.6918,689.49316,1337.2427Q689.6956,1336.806,689.6201,1336.2961Q689.5043,1335.5126,688.9404,1335.1383Q688.3767,1334.764,687.2661,1334.9031L685.60803,1335.1224Q685.0464,1335.193,684.85895,1335.0428Q684.6733,1334.905,684.64026,1334.6813Q684.6053,1334.4447,684.74805,1334.2073Q684.8804,1333.9845,685.03973,1333.8594Q685.46674,1333.9103,685.9768,1333.835Q686.53656,1333.7527,686.9852,1333.5206Q687.43585,1333.3015,687.74,1332.9517Q688.0335,1332.616,688.15936,1332.1775Q688.2853,1331.7399,688.20984,1331.2297Q688.1621,1330.9065,688.0506,1330.6685Q687.9392,1330.4308,687.7712,1330.2395L688.89056,1330.0739Q688.8933,1329.921,688.8837,1329.7703Q688.87396,1329.619,688.8538,1329.482Q688.81146,1329.1958,688.72687,1328.967Q688.21686,1329.0424,687.8142,1329.2418Q687.4097,1329.4288,687.1903,1329.6646Q686.83014,1329.4636,686.34595,1329.3696Q685.87427,1329.2742,685.3145,1329.3569 Z"/>
</g>
<g style="fill:rgb(255,134,136); fill-opacity:1.0; stroke-linejoin: miter">
<path d="M771.47424,1126.9773C771.6436,1127.4222,771.86804,1127.8469,772.093,1128.2717C774.1908,1131.6145,778.5852,1132.6212,781.9292,1130.5236C785.27203,1128.4257,786.2785,1124.0306,784.1811,1120.6876C782.0835,1117.3441,777.68854,1116.3376,774.3452,1118.4355C771.4603,1120.2306,770.29034,1123.8601,771.47424,1126.9773 Z"/>
</g>
<g style="fill:rgb(249,170,14); fill-opacity:1.0; stroke-linejoin: miter">
<path d="M783.33014,1150.819C784.72565,1154.4928,788.87244,1156.3577,792.54626,1154.9625C796.2206,1153.5677,798.085,1149.4199,796.68945,1145.7458C795.29517,1142.0721,791.1475,1140.2075,787.4734,1141.603C783.7996,1142.9979,781.9348,1147.145,783.33014,1150.819 Z"/>
</g>
<g style="fill:rgb(255,192,68); fill-opacity:1.0; stroke-linejoin: miter">
<path d="M789.96796,1175.1772C790.02594,1175.6652,790.19507,1176.11,790.3426,1176.4998C791.5264,1179.6174,794.81,1181.5544,798.23676,1181.0176C802.12976,1180.3677,804.72766,1176.6425,804.0778,1172.7489C803.42725,1168.8557,799.75757,1166.2366,795.8088,1166.9076C791.9156,1167.5586,789.3174,1171.2836,789.96796,1175.1772 Z"/>
</g>
<g style="fill:rgb(125,139,150); fill-opacity:0.99607843; stroke-linejoin: miter">
<path d="M777.6825,1168.7714L777.6824,1168.7719L777.68176,1168.7711L777.6825,1168.7714"/>
</g>
<g style="fill:rgb(60,70,79); fill-opacity:0.99607843; stroke-linejoin: miter">
<path d="M764.08795,1159.9116L764.08765,1159.9126L764.0874,1159.9114L764.08765,1159.9126L764.08795,1159.9116L764.08765,1159.9126L764.0874,1159.9114Q764.08795,1159.9116,764.08795,1159.9116"/>
</g>
<g style="fill:rgb(60,70,79); fill-opacity:0.99607843; stroke-linejoin: miter">
<path d="M769.0476,1159.9584L769.0472,1159.9586L769.0476,1159.9584L769.0474,1159.9589L769.04736,1159.9584L769.0474,1159.9589L769.0476,1159.9584Q769.0476,1159.9584,769.0476,1159.9584"/>
</g>
<g style="fill:rgb(251,187,140); fill-opacity:1.0; stroke-linejoin: miter">
<path d="M711.4437,1105.5543L711.44385,1105.5533L711.44385,1105.5526L711.4441,1105.5533L711.4441,1105.5526C713.3934,1105.9102,715.52563,1106.3481,716.1813,1106.4752C718.782,1106.978,726.3471,1108.085,728.7786,1108.354C730.2384,1108.5156,732.8536,1108.869,734.6186,1109.1414C738.544,1109.7471,756.7905,1111.5205,761.55585,1111.8289C763.4577,1111.9519,765.63513,1112.13,766.4539,1112.2043C767.2554,1112.2772,769.5604,1112.3881,771.6094,1112.4655C773.67285,1112.5433,776.472,1112.6686,777.90424,1112.7546C784.8529,1113.1704,809.78827,1108.4713,817.5746,1105.2839C826.9084,1101.4645,830.0405,1100.2474,832.68304,1099.4083C834.2711,1098.9036,837.20197,1097.834,839.2308,1097.0349C841.2093,1096.2568,845.50433,1094.9552,848.7813,1094.1597C856.75775,1092.5873,866.07947,1093.0035,866.07947,1093.0035C868.77155,1093.1234,873.1112,1093.2972,877.7997,1093.4932C884.8319,1093.7871,886.83875,1093.9147,888.4047,1094.063C889.327,1094.15,891.05475,1094.228,892.12756,1094.2479C895.9473,1094.3215,899.26556,1094.5312,900.4427,1094.7075C901.0826,1094.804,903.1597,1094.9348,905.04736,1095.0355C911.5283,1095.3824,867.3838,1093.3984,905.47723,1094.865L925.9403,1098.342C932.4905,1169.7611,924.80133,1167.806,924.80133,1167.806C924.0823,1167.6235,923.1178,1167.3124,922.6184,1167.1622C922.1451,1167.0194,921.2946,1166.8597,920.83136,1166.7698C920.34564,1166.6755,917.24475,1165.9307,913.953,1165.1392C910.6603,1164.3473,906.36676,1163.3829,904.418,1163.0273C902.469,1162.67,899.8167,1162.1699,898.5053,1161.9163C891.40985,1160.542,885.94965,1159.979,878.1383,1159.7385C875.0568,1159.6431,868.902,1161.0001,866.6517,1162.3116C863.6918,1164.0365,861.0048,1166.2246,858.89307,1168.6364C856.81085,1171.0153,855.5267,1172.3301,854.3273,1173.284C853.9401,1173.5919,852.3551,1175.089,850.8137,1176.5629C843.53955,1183.5208,836.3458,1187.5945,818.9241,1194.7505C806.31714,1199.9283,795.5797,1206.7922,788.19305,1214.3201C786.8184,1215.7212,785.1701,1217.3015,784.60834,1217.7845C783.74615,1218.5269,778.27405,1224.8755,775.3055,1228.5906C774.4701,1229.6357,768.5207,1237.844,764.7136,1243.253C761.9896,1247.1233,758.3472,1250.2244,756.52527,1250.1846C752.8266,1250.1023,748.77985,1246.199,747.7895,1241.7769C747.24603,1239.3497,747.51227,1233.3737,748.1877,1232.6829C748.4348,1232.4297,748.51624,1231.8718,748.4193,1231.4404C748.2021,1230.4708,750.6887,1224.6442,753.63806,1219.342C755.9776,1215.134,762.9334,1205.2434,766.6983,1200.7848C767.9463,1199.3066,769.1627,1197.8596,769.3784,1197.5789C770.74194,1195.8069,778.7961,1187.0309,779.06525,1186.9702C779.2275,1186.9344,780.0083,1186.1765,780.78326,1185.283C782.9343,1182.8026,789.2389,1176.7631,789.77856,1176.6427C790.1022,1176.5696,790.6302,1175.9335,791.0049,1175.2914C791.69446,1174.1094,791.3444,1174.0256,780.5348,1173.049C774.40814,1172.4957,768.7508,1171.9879,767.93286,1171.9078C759.94836,1171.1274,746.64636,1173.4548,740.1271,1176.7196C735.3927,1179.0914,728.49554,1182.9856,726.70636,1184.3134C725.8726,1184.9323,724.9337,1185.5035,724.6102,1185.5767C724.2867,1185.6488,723.64087,1186.0284,723.1669,1186.4664C722.74884,1186.8519,720.6013,1188.3684,718.4311,1189.8483C712.93713,1193.596,711.3535,1194.6622,705.8218,1198.7899C703.97815,1200.1648,702.3134,1201.3314,702.0441,1201.3918C701.7742,1201.452,700.9765,1201.9603,700.2176,1202.594C697.82764,1204.5907,695.32666,1206.2942,694.5717,1206.463C694.1404,1206.5599,693.68085,1206.9191,693.44,1207.2267C693.1945,1207.5405,691.74567,1208.5123,690.2487,1209.4138C688.7516,1210.316,686.9603,1211.4055,686.31445,1211.8241C685.6251,1212.2712,683.04816,1213.4408,680.5643,1214.472C676.519,1216.1492,675.6102,1216.3472,671.70764,1216.3986C662.1707,1216.5251,657.0192,1213.4664,658.4952,1208.4843C659.3733,1205.5195,662.0762,1203.5168,670.2411,1199.7366C680.087,1195.1777,687.38586,1190.0629,691.3462,1184.9852C694.5579,1180.8668,702.96436,1172.3239,708.37134,1167.6924C715.3188,1161.7412,715.2747,1161.0901,707.9316,1162.6934C705.1772,1163.2944,700.9439,1163.8622,698.4748,1163.9622C696.00476,1164.0624,693.22363,1164.2885,692.36084,1164.4822C689.8262,1165.0499,682.72095,1164.9584,677.3091,1164.2856C668.7391,1163.2198,661.0272,1160.6283,656.3113,1157.2654C651.6585,1153.9487,650.66235,1150.585,653.1521,1146.7031C654.7345,1144.2349,655.71515,1143.9706,658.85004,1145.0862C660.20776,1145.5691,661.6325,1145.8794,662.0099,1145.7947C662.3874,1145.7103,662.97516,1145.805,663.3052,1146.0145C664.2291,1146.6001,677.7918,1148.4899,679.08606,1148.1996C679.6794,1148.0669,681.3264,1148.1051,682.78467,1148.2772C685.63074,1148.6129,699.5907,1145.6929,703.61957,1143.95C705.83856,1142.99,706.2293,1141.4469,704.2155,1141.5511C703.59827,1141.5833,700.7225,1141.3492,697.8725,1141.0458C678.4433,1138.9778,667.50903,1133.6868,671.8657,1128.3518C673.5086,1126.3397,674.7449,1125.755,677.4117,1125.807C679.86444,1125.855,684.89215,1125.8226,692.9846,1125.5469C695.6278,1125.4569,698.88885,1125.3955,700.3102,1125.3783C702.89996,1125.3467,707.1554,1125.1018,713.9938,1124.5221C716.1041,1124.3428,719.0161,1124.1685,720.42474,1124.1575C723.99164,1124.1296,730.3818,1123.2617,730.9186,1122.7129C731.30505,1122.3177,727.39594,1120.387,726.5871,1120.5685C726.4255,1120.6044,725.3219,1120.2283,724.1816,1119.6914C723.04175,1119.1536,721.9387,1118.7772,721.7767,1118.8146C721.5612,1118.8628,720.3042,1118.3687,718.98706,1117.7393C717.64014,1117.0964,716.3603,1116.6294,716.1445,1116.6774C715.8744,1116.7378,714.62665,1116.2238,713.39685,1115.5369C712.1667,1114.8499,710.4089,1114.1344,709.57587,1113.9016C707.9318,1113.4432,703.1618,1110.2975,702.9803,1109.4888C702.92004,1109.2194,703.16144,1108.4052,703.53485,1107.6659C704.6139,1105.5306,707.37286,1104.8237,711.4437,1105.5543L711.4441,1105.5533L711.4437,1105.5543L711.44385,1105.5533L711.4437,1105.5543 Z"/>
</g>
<g style="fill:rgb(0,0,0); fill-opacity:1.0; stroke-linejoin: miter">
<path d="M1001.3607,1056.9093L859.11084,1069.8568L870.15936,1191.2451L1001.37085,1179.3062L1001.3607,1056.9093 Z"/>
</g>
<g style="fill:rgb(255,255,255); fill-opacity:1.0; stroke-linejoin: miter">
<path d="M1001.36066,1056.9082L990.1732,1057.9266L1001.2218,1179.3156L1001.37085,1179.3038L1001.36066,1056.9082 Z"/>
</g>
<g style="fill:rgb(255,255,255); fill-opacity:1.0; stroke-linejoin: miter">
<path d="M944.3024,1184.4963Q938.7786,1123.8024,933.2549,1063.1079L939.6395,1062.5255Q942.5572,1062.2614,945.4743,1061.9956L945.4828,1061.9938Q939.3688,1062.5514,933.255,1063.1067L947.3634,1061.824L947.3549,1061.8237Q946.4198,1061.9093,945.48456,1061.9949L945.4847,1061.9933Q946.8401,1061.872,948.19495,1061.7482L948.2033,1061.7463L947.36487,1061.8242L947.3646,1061.8223Q955.28143,1061.1033,963.19446,1060.383Q968.7357,1121.0758,974.26013,1181.77L944.31134,1184.4956 Z"/>
</g>
<g style="fill:rgb(255,255,255); fill-opacity:1.0; stroke-linejoin: miter">
<path d="M887.384,1189.6774L876.3361,1068.2894Q891.30676,1066.9266,906.2771,1065.5642L917.3413,1186.9506L887.384,1189.6774 Z"/>
</g>
<g style="fill:rgb(252,184,38); fill-opacity:1.0; stroke-linejoin: miter">
<path d="M603.7489,1166.7264C579.03766,1166.6573,559.08813,1186.4955,559.019,1211.2067L558.8803,1260.7671L571.27045,1260.8031L571.4091,1211.2415C571.4591,1193.395,585.86646,1179.0667,603.71423,1179.1166C621.5608,1179.1666,635.8892,1193.5742,635.8392,1211.422L635.7005,1260.9824L648.0906,1261.0182L648.2293,1211.4565C648.2985,1186.7452,628.46027,1166.7959,603.7489,1166.7264 Z"/>
</g>
<g style="fill:rgb(252,184,38); fill-opacity:1.0; stroke-linejoin: miter">
<path d="M580.51587,1257.6488L444.12036,1257.2673L443.8248,1362.8406L580.22046,1363.2225L580.51587,1257.6488 Z M580.51587,1257.6488L444.12036,1257.2673L443.8248,1362.8406L580.22046,1363.2225L580.51587,1257.6488 Z M580.51587,1257.6488L444.12036,1257.2673L443.8248,1362.8406L580.22046,1363.2225L580.51587,1257.6488 Z M580.51587,1257.6488L444.12036,1257.2673L443.8248,1362.8406L580.22046,1363.2225L580.51587,1257.6488 Z"/>
</g>
<g style="fill:rgb(79,121,142); fill-opacity:1.0; stroke-linejoin: miter">
<path d="M499.05875,1314.4238L499.25577,1315.9185Q500.29254,1320.4093,504.17847,1322.9083Q508.09003,1325.4037,513.1416,1324.5883Q517.9491,1323.5825,520.6504,1319.9261Q521.51526,1318.7449,522.0397,1317.3811L522.4657,1315.9861Q522.7999,1314.5521,522.7136,1313.0203Q522.30774,1308.3269,518.7852,1305.4036Q515.2626,1302.4799,510.22974,1302.6597Q505.21075,1303.0762,502.05865,1306.3959Q498.90662,1309.7152,499.05875,1314.4238"/>
</g>
<g style="fill:rgb(79,121,142); fill-opacity:1.0; stroke-linejoin: miter">
<path d="M506.46808,1317.8584L506.46814,1317.8586L500.4031,1352.2019Q511.604,1351.9985,522.8049,1351.795Q518.8175,1334.4967,514.8301,1317.1986L506.46808,1317.8584"/>
</g>
</g>
</svg>