<svg width="65" height="65" viewBox="0 0 65 65" fill="none" xmlns="http://www.w3.org/2000/svg">
<path fill-rule="evenodd" clip-rule="evenodd" d="M31.8475 53.6045L10.946 35.6059C6.83679 32.0675 4.7822 30.2983 3.97877 28.0869C3.45354 26.6412 3.30757 25.0851 3.5548 23.5669C3.93298 21.2448 5.62271 19.1243 9.00218 14.8834L10.0537 13.5639C14.0517 8.54681 16.0506 6.03828 18.2284 5.27667C20.6605 4.42607 23.3535 4.79899 25.463 6.27851C26.4378 6.9622 27.2404 8.08076 28.1303 9.81629L21.6667 21.6662L33.8542 33.8538L31.1459 40.6246L40.625 32.4996L29.7917 21.6662L32.5057 18.2784C32.6808 18.2774 32.8557 18.2304 33.0116 18.1376C33.2945 17.9692 33.5036 17.4712 33.9219 16.4753C36.4061 10.5606 37.6482 7.60324 39.537 6.27851C41.6465 4.79899 44.3395 4.42607 46.7717 5.27667C48.9494 6.03828 50.9484 8.54681 54.9463 13.5639L55.9978 14.8834C59.3773 19.1243 61.067 21.2448 61.4452 23.5669C61.6924 25.0851 61.5465 26.6412 61.0212 28.0869C60.2178 30.2983 58.1632 32.0675 54.054 35.6059L33.1525 53.6045L33.1525 53.6045C32.8412 53.8725 32.6856 54.0065 32.5 54.0065C32.3144 54.0065 32.1588 53.8725 31.8475 53.6045L31.8475 53.6045Z" fill="#050C1C"/>
</svg>
