<svg width="154" height="154" viewBox="0 0 154 154" fill="none" xmlns="http://www.w3.org/2000/svg">
<path fill-rule="evenodd" clip-rule="evenodd" d="M20.1287 32.9627C19.25 33.8413 19.25 35.2556 19.25 38.084V50.3338C19.4146 50.3337 19.5815 50.3742 19.7356 50.4598L77 82.2734L134.264 50.4598C134.418 50.3742 134.585 50.3337 134.75 50.3338V38.084C134.75 35.2556 134.75 33.8413 133.871 32.9627C132.993 32.084 131.578 32.084 128.75 32.084H25.25C22.4216 32.084 21.0074 32.084 20.1287 32.9627ZM134.75 52.4779L77.9713 84.0217C77.3672 84.3573 76.6328 84.3573 76.0287 84.0217L19.25 52.4779V115.917C19.25 118.746 19.25 120.16 20.1287 121.039C21.0074 121.917 22.4216 121.917 25.25 121.917H128.75C131.578 121.917 132.993 121.917 133.871 121.039C134.75 120.16 134.75 118.746 134.75 115.917V52.4779Z" fill="#CAA74E"/>
</svg>
