<svg width="38" height="38" viewBox="0 0 38 38" fill="none" xmlns="http://www.w3.org/2000/svg">
<path d="M1.68328 4.36657L8.55279 18.1056C8.77224 18.5445 8.88197 18.7639 8.88197 19C8.88197 19.2361 8.77224 19.4555 8.55279 19.8944L1.68328 33.6334C0.573965 35.8521 0.0193075 36.9614 0.528961 37.471C1.03861 37.9807 2.14793 37.426 4.36657 36.3167L35.4223 20.7889C36.9834 20.0083 37.7639 19.618 37.7639 19C37.7639 18.382 36.9834 17.9917 35.4223 17.2111L4.36656 1.68328C2.14793 0.573966 1.03861 0.0193075 0.528961 0.528961C0.0193075 1.03861 0.573966 2.14793 1.68328 4.36657Z" fill="#2CB953"/>
</svg>
