<svg width="93" height="62" viewBox="0 0 93 62" fill="none" xmlns="http://www.w3.org/2000/svg">
<rect width="93" height="62" rx="30" fill="#EC2A2A"/>
<path d="M46.5 25.875C43.5 25.875 40.5938 26.3438 37.875 27.225V33.0375C37.875 33.7687 37.4438 34.425 36.825 34.725C34.9875 35.6438 33.3187 36.825 31.8375 38.1937C31.5 38.5312 31.0313 38.7188 30.525 38.7188C30 38.7188 29.5312 38.5125 29.1937 38.175L24.5437 33.525C24.2062 33.2062 24 32.7375 24 32.2125C24 31.6875 24.2062 31.2188 24.5437 30.8813C30.2625 25.4625 37.9875 22.125 46.5 22.125C55.0125 22.125 62.7375 25.4625 68.4562 30.8813C68.7937 31.2188 69 31.6875 69 32.2125C69 32.7375 68.7937 33.2063 68.4562 33.5438L63.8062 38.1937C63.4687 38.5312 63 38.7375 62.475 38.7375C61.9688 38.7375 61.5 38.5312 61.1625 38.2125C59.6812 36.825 57.9937 35.6625 56.1562 34.7437C55.5375 34.4437 55.1063 33.8062 55.1063 33.0562V27.2437C52.4063 26.3437 49.5 25.875 46.5 25.875Z" fill="white"/>
</svg>
