<svg width="45" height="45" viewBox="0 0 45 45" fill="none" xmlns="http://www.w3.org/2000/svg">
<path d="M7.5 20.875C7.5 18.9894 7.5 18.0466 8.08579 17.4608C8.67157 16.875 9.61438 16.875 11.5 16.875H33.5C35.3856 16.875 36.3284 16.875 36.9142 17.4608C37.5 18.0466 37.5 18.9894 37.5 20.875V33.375C37.5 36.2034 37.5 37.6176 36.6213 38.4963C35.7426 39.375 34.3284 39.375 31.5 39.375H13.5C10.6716 39.375 9.25736 39.375 8.37868 38.4963C7.5 37.6176 7.5 36.2034 7.5 33.375V20.875Z" stroke="#C08686" stroke-width="2"/>
<path d="M30 15V13.125C30 10.7953 30 9.63044 29.6194 8.71158C29.1119 7.48644 28.1386 6.51307 26.9134 6.0056C25.9946 5.625 24.8297 5.625 22.5 5.625V5.625C20.1703 5.625 19.0054 5.625 18.0866 6.0056C16.8614 6.51307 15.8881 7.48644 15.3806 8.71158C15 9.63044 15 10.7953 15 13.125V15" stroke="#C08686" stroke-width="2" stroke-linecap="round"/>
<circle cx="22.5" cy="28.125" r="3.75" fill="#C08686"/>
</svg>
