<svg width="66" height="66" viewBox="0 0 66 66" fill="none" xmlns="http://www.w3.org/2000/svg">
<circle cx="33" cy="33" r="33" fill="#DBB3BB"/>
<path d="M17.797 36.1199C16.4601 33.8918 16.4601 31.1082 17.797 28.8801V28.8801C18.2049 28.2001 18.8808 27.7238 19.6583 27.5683L22.8327 26.9335C23.0219 26.8956 23.1923 26.7942 23.3158 26.646L29.6708 19.02C30.8534 17.6009 31.4447 16.8914 31.9723 17.0824C32.5 17.2735 32.5 18.1971 32.5 20.0443L32.5 44.9557C32.5 46.8029 32.5 47.7265 31.9723 47.9176C31.4447 48.1086 30.8534 47.3991 29.6708 45.98L23.3158 38.354C23.1923 38.2058 23.0219 38.1044 22.8327 38.0665L19.6583 37.4317C18.8808 37.2762 18.2049 36.7999 17.797 36.1199V36.1199Z" fill="white"/>
<path d="M38.125 38.125L49.375 26.875" stroke="white" stroke-width="2" stroke-linecap="round"/>
<path d="M49.375 38.125L38.125 26.875" stroke="white" stroke-width="2" stroke-linecap="round"/>
</svg>
