<svg width="45" height="45" viewBox="0 0 45 45" fill="none" xmlns="http://www.w3.org/2000/svg">
<circle cx="22.5" cy="15" r="7.5" stroke="#C08686" stroke-width="2" stroke-linecap="round"/>
<path fill-rule="evenodd" clip-rule="evenodd" d="M30.75 30.7468C28.2604 29.6035 25.407 29 22.5 29C19.0396 29 15.655 29.8552 12.8698 31.4581C10.0852 33.0606 8.01856 35.3451 7.0694 38.0018C6.88359 38.5219 7.15458 39.0942 7.67467 39.28C8.19476 39.4658 8.767 39.1948 8.95281 38.6747C9.7129 36.5472 11.4127 34.6042 13.8674 33.1915C16.3215 31.7792 19.3564 31 22.5 31C23.2671 31 24.0277 31.0464 24.775 31.1371C25.2105 30.8906 25.7138 30.75 26.25 30.75L30.75 30.75V30.7468ZM36.75 39.3094C36.9342 39.3549 37.1333 39.3486 37.3253 39.28C37.8454 39.0942 38.1164 38.5219 37.9306 38.0019C37.7779 37.5745 37.5963 37.1568 37.3875 36.75H36.75V39.3094Z" fill="#C08686"/>
<path d="M33.75 26.25L33.75 41.25" stroke="#C08686" stroke-width="2.5" stroke-linecap="round"/>
<path d="M41.25 33.75L26.25 33.75" stroke="#C08686" stroke-width="2.5" stroke-linecap="round"/>
</svg>
